<svg width="10" height="12" viewBox="0 0 10 12" fill="none" xmlns="http://www.w3.org/2000/svg">
<path fill-rule="evenodd" clip-rule="evenodd" d="M9 2.74286H7.66667V1.02857C7.66667 0.466286 7.21333 0 6.66667 0H1C0.453333 0 0 0.466286 0 1.02857V8.22857C0 8.79086 0.453333 9.25714 1 9.25714H2.33333V10.9714C2.33333 11.5337 2.78667 12 3.33333 12H9C9.54667 12 10 11.5337 10 10.9714V3.77143C10 3.20914 9.54667 2.74286 9 2.74286ZM2.3332 3.77143V8.22857H0.999869V1.02857H6.66653V2.74286H3.3332C2.78654 2.74286 2.3332 3.20914 2.3332 3.77143ZM3.33331 10.9714H8.99998V3.77143H3.33331V10.9714Z" fill="currentColor"/>
</svg>
