<svg width="16" height="16" viewBox="0 0 16 16" fill="none" xmlns="http://www.w3.org/2000/svg">
<path d="M15.706 0.294004C15.314 -0.0980013 14.6784 -0.0980014 14.2864 0.294004L8 6.58042L1.71358 0.294005C1.32158 -0.0980007 0.686009 -0.0980008 0.294004 0.294004C-0.0980013 0.68601 -0.0980014 1.32158 0.294004 1.71358L6.58042 8L0.294152 14.2863C-0.0978531 14.6783 -0.0978531 15.3138 0.294152 15.7058C0.686157 16.0979 1.32172 16.0979 1.71373 15.7058L8 9.41958L14.2863 15.7058C14.6783 16.0979 15.3138 16.0979 15.7058 15.7058C16.0979 15.3138 16.0979 14.6783 15.7058 14.2863L9.41958 8L15.706 1.71358C16.098 1.32158 16.098 0.686009 15.706 0.294004Z" fill="currentColor"/>
</svg>
