<svg width="13" height="12" viewBox="0 0 13 12" fill="none" xmlns="http://www.w3.org/2000/svg">
<path fill-rule="evenodd" clip-rule="evenodd" d="M1 1V4.00573H4V1H1ZM8.00374 1V4.00573H11.0037V1H8.00374ZM1.00009 7.99427V11H4.00009V7.99427H1.00009ZM8.00374 7.99427V11H11.0037V7.99427H8.00374ZM0.2 0C0.089543 0 0 0.0896455 0 0.200229V4.8055C0 4.91609 0.0895429 5.00573 0.2 5.00573H4.8C4.91046 5.00573 5 4.91609 5 4.8055V0.200229C5 0.0896457 4.91046 0 4.8 0H0.2ZM7.20374 0C7.09328 0 7.00374 0.0896455 7.00374 0.200229V4.8055C7.00374 4.91609 7.09328 5.00573 7.20374 5.00573H11.8037C11.9142 5.00573 12.0037 4.91609 12.0037 4.8055V0.200229C12.0037 0.0896457 11.9142 0 11.8037 0H7.20374ZM9.20296e-05 7.1945C9.20296e-05 7.08391 0.0896351 6.99427 0.200092 6.99427H4.80009C4.91055 6.99427 5.00009 7.08391 5.00009 7.1945V11.7998C5.00009 11.9104 4.91055 12 4.80009 12H0.200092C0.0896349 12 9.20296e-05 11.9104 9.20296e-05 11.7998V7.1945ZM7.20374 6.99427C7.09328 6.99427 7.00374 7.08391 7.00374 7.1945V11.7998C7.00374 11.9104 7.09328 12 7.20374 12H11.8037C11.9142 12 12.0037 11.9104 12.0037 11.7998V7.1945C12.0037 7.08391 11.9142 6.99427 11.8037 6.99427H7.20374Z" fill="currentColor"/>
</svg>
