<svg width="12" height="12" viewBox="0 0 12 12" fill="none" xmlns="http://www.w3.org/2000/svg">
<path d="M10.9996 7.50699V10.9993H1.0001V7.507C1.0001 7.23086 0.776241 7.007 0.500098 7.007C0.223956 7.007 9.82285e-05 7.23086 9.82285e-05 7.507V11.4893L0 11.4993C0 11.7248 0.149229 11.9154 0.354304 11.9778C0.40043 11.9918 0.449382 11.9994 0.500098 11.9994L0.505592 11.9993H11.4087C11.424 11.9993 11.4391 11.9986 11.4541 11.9973C11.4691 11.9987 11.4843 11.9994 11.4996 11.9994C11.7758 11.9994 11.9996 11.7755 11.9996 11.4994V7.50699C11.9996 7.23085 11.7758 7.00699 11.4996 7.00699C11.2235 7.00699 10.9996 7.23085 10.9996 7.50699Z" fill="currentColor"/>
<path d="M5.61741 8.99112C5.81719 9.22835 6.18252 9.22835 6.38231 8.99112L9.09141 5.77421C9.36526 5.44903 9.1341 4.95213 8.70896 4.95213H6.54517L6.54517 0.5C6.54517 0.223858 6.32131 2.41412e-08 6.04517 0C5.76902 -2.41412e-08 5.54517 0.223858 5.54517 0.5L5.54517 4.95213L3.29076 4.95213C2.86562 4.95213 2.63446 5.44903 2.90831 5.77421L5.61741 8.99112Z" fill="currentColor"/>
</svg>
