<svg width="12" height="12" viewBox="0 0 12 12" fill="none" xmlns="http://www.w3.org/2000/svg">
<path fill-rule="evenodd" clip-rule="evenodd" d="M12 1.2C12 0.537258 11.4627 0 10.8 0H1.2C0.537258 0 0 0.537258 0 1.2V10.8C0 11.4627 0.537258 12 1.2 12H10.8C11.4627 12 12 11.4627 12 10.8V1.2ZM1 1H11V11H1V1Z" fill="currentColor"/>
<path d="M2.49998 4.1C2.49998 3.82386 2.72383 3.6 2.99998 3.6H8.99998C9.27612 3.6 9.49998 3.82386 9.49998 4.1C9.49998 4.37614 9.27612 4.6 8.99998 4.6H2.99998C2.72383 4.6 2.49998 4.37614 2.49998 4.1Z" fill="currentColor"/>
<path d="M4.49995 7.7C4.49995 7.42386 4.72381 7.2 4.99995 7.2H8.99995C9.27609 7.2 9.49995 7.42386 9.49995 7.7C9.49995 7.97614 9.27609 8.2 8.99995 8.2H4.99995C4.72381 8.2 4.49995 7.97614 4.49995 7.7Z" fill="currentColor"/>
</svg>
