<svg width="12" height="12" viewBox="0 0 12 12" fill="none" xmlns="http://www.w3.org/2000/svg">
<path fill-rule="evenodd" clip-rule="evenodd" d="M2.74622 12C2.28799 12 1.88708 11.6944 1.76933 11.2553L0.0340036 4.78503C-0.0743945 4.38085 0.0817519 3.95244 0.425704 3.71032L5.43384 0.185018C5.78425 -0.0616396 6.25366 -0.0616756 6.6041 0.184928L11.5742 3.68227C11.9376 3.93799 12.0892 4.39948 11.9474 4.81834L9.74811 11.3166C9.60993 11.7249 9.22413 12 8.78978 12H2.74622ZM6.0658 2.99542C5.65327 2.99542 5.31885 3.32698 5.31885 3.73598V6.6982C5.31885 7.1072 5.65327 7.43876 6.0658 7.43876C6.47833 7.43876 6.81275 7.1072 6.81275 6.6982V3.73598C6.81275 3.32698 6.47833 2.99542 6.0658 2.99542ZM6.0658 9.66043C6.47833 9.66043 6.81275 9.32887 6.81275 8.91987C6.81275 8.51088 6.47833 8.17932 6.0658 8.17932C5.65327 8.17932 5.31885 8.51088 5.31885 8.91987C5.31885 9.32887 5.65327 9.66043 6.0658 9.66043Z" fill="currentColor"/>
</svg>
