<svg width="9" height="12" viewBox="0 0 9 12" fill="none" xmlns="http://www.w3.org/2000/svg">
<path d="M3.87269 7.25592C4.09919 7.39554 4.39073 7.31617 4.52386 7.07864C4.657 6.84112 4.58131 6.53539 4.35481 6.39577L3.46511 5.84734C3.26304 5.72279 3.10888 5.30788 3.35899 4.8453L5.19148 1.45606C5.44067 0.995161 5.84317 0.939195 6.03712 1.05875L7.81654 2.1556C8.0186 2.28016 8.17276 2.69507 7.92266 3.15764L7.00641 4.85227C6.87683 5.09194 6.95705 5.3964 7.1856 5.53229C7.41415 5.66818 7.70447 5.58405 7.83406 5.34438L8.7503 3.64976C9.1749 2.86445 9.07934 1.77667 8.29867 1.29545L6.51925 0.198601C5.73046 -0.287617 4.78934 0.176951 4.36383 0.963942L2.53134 4.35319C2.10674 5.1385 2.2023 6.22627 2.98298 6.70749L3.87269 7.25592Z" fill="currentColor"/>
<path d="M3.80852 10.5439C3.55933 11.0048 3.15683 11.0608 2.96288 10.9412L1.18346 9.8444C0.981397 9.71984 0.827239 9.30493 1.07734 8.84236L1.99359 7.14773C2.12317 6.90806 2.04295 6.6036 1.8144 6.46771C1.58585 6.33182 1.29553 6.41595 1.16594 6.65562L0.249696 8.35024C-0.174901 9.13555 -0.0793436 10.2233 0.701334 10.7045L2.48075 11.8014C3.26954 12.2876 4.21066 11.823 4.63617 11.0361L6.46866 7.64681C6.89326 6.8615 6.7977 5.77372 6.01702 5.29251L5.12731 4.74408C4.90082 4.60446 4.60927 4.68383 4.47614 4.92136C4.343 5.15888 4.41869 5.46461 4.64519 5.60423L5.53489 6.15266C5.73696 6.27721 5.89112 6.69212 5.64101 7.1547L3.80852 10.5439Z" fill="currentColor"/>
</svg>
