<svg width="12" height="12" viewBox="0 0 12 12" fill="none" xmlns="http://www.w3.org/2000/svg">
<path fill-rule="evenodd" clip-rule="evenodd" d="M6 12C9.31371 12 12 9.31371 12 6C12 2.68629 9.31371 0 6 0C2.68629 0 0 2.68629 0 6C0 9.31371 2.68629 12 6 12ZM6 2.625C5.58579 2.625 5.25 2.96079 5.25 3.375V6.375C5.25 6.78921 5.58579 7.125 6 7.125C6.41421 7.125 6.75 6.78921 6.75 6.375V3.375C6.75 2.96079 6.41421 2.625 6 2.625ZM6 9.375C6.41421 9.375 6.75 9.03921 6.75 8.625C6.75 8.21079 6.41421 7.875 6 7.875C5.58579 7.875 5.25 8.21079 5.25 8.625C5.25 9.03921 5.58579 9.375 6 9.375Z" fill="currentColor"/>
</svg>
