<svg width="12" height="12" viewBox="0 0 12 12" fill="none" xmlns="http://www.w3.org/2000/svg">
<path fill-rule="evenodd" clip-rule="evenodd" d="M6.87455 0.553713C6.50202 -0.1851 5.48103 -0.184428 5.1094 0.554874L0.11385 10.4928C-0.231182 11.1792 0.249618 12 0.996716 12H11.0033C11.7509 12 12.2317 11.1781 11.8856 10.4916L6.87455 0.553713ZM5.99995 3.75293C5.58765 3.75293 5.25342 4.09914 5.25342 4.52621V7.09013C5.25342 7.5172 5.58765 7.86341 5.99995 7.86341C6.41225 7.86341 6.74648 7.5172 6.74648 7.09013V4.52621C6.74648 4.09914 6.41225 3.75293 5.99995 3.75293ZM5.99995 10.1969C6.41225 10.1969 6.74648 9.85069 6.74648 9.42363C6.74648 8.99656 6.41225 8.65035 5.99995 8.65035C5.58765 8.65035 5.25342 8.99656 5.25342 9.42363C5.25342 9.85069 5.58765 10.1969 5.99995 10.1969Z" fill="currentColor"/>
</svg>
