<svg width="12" height="11" viewBox="0 0 12 11" fill="none" xmlns="http://www.w3.org/2000/svg">
<path d="M3.45186 3.80208L3.45186 10.4103C3.45186 10.686 3.22839 10.9095 2.95273 10.9095C2.67707 10.9095 2.4536 10.686 2.4536 10.4103L2.4536 3.80208H3.45186Z" fill="currentColor"/>
<path d="M2.5765 0.170748C2.77571 -0.056916 3.12987 -0.056916 3.32908 0.170748L5.78089 2.97282C6.06377 3.29611 5.83418 3.80207 5.4046 3.80207L0.500972 3.80208C0.0713927 3.80208 -0.158195 3.29611 0.124685 2.97282L2.5765 0.170748Z" fill="currentColor"/>
<path d="M8.54597 7.11184L8.54597 0.503572C8.54597 0.227908 8.76944 0.00443918 9.0451 0.00443923C9.32076 0.00443928 9.54423 0.227909 9.54423 0.503572L9.54423 7.11184H8.54597Z" fill="currentColor"/>
<path d="M8.66876 10.7432L6.21694 7.94109C5.93406 7.6178 6.16365 7.11184 6.59323 7.11184L11.4969 7.11184C11.9264 7.11184 12.156 7.6178 11.8731 7.94109L9.42133 10.7432C9.22213 10.9708 8.86796 10.9708 8.66876 10.7432Z" fill="currentColor"/>
</svg>
