<svg width="12" height="12" viewBox="0 0 12 12" fill="none" xmlns="http://www.w3.org/2000/svg">
<path d="M6.00971 11.9987C9.09525 12.0029 11.6827 9.67125 11.9967 6.60359C12.0141 6.44466 11.9623 6.28592 11.8544 6.16788C11.7474 6.04905 11.595 5.98107 11.435 5.98078C11.4015 5.98085 11.368 5.98385 11.335 5.98975C11.082 6.0359 10.8916 6.24617 10.8708 6.50235C10.6022 9.05687 8.4019 10.9683 5.83333 10.8785C3.26475 10.7887 1.20349 8.72818 1.11422 6.16114C1.02495 3.5941 2.9381 1.39555 5.49424 1.12772C5.79363 1.09931 6.0184 0.841666 6.00576 0.54137C5.99313 0.241075 5.74752 0.00319678 5.44679 0H5.38781C2.20551 0.336063 -0.157641 3.10143 0.0082195 6.2952C0.17408 9.48897 2.81099 11.995 6.01099 12L6.00971 11.9987Z" fill="currentColor"/>
<path d="M4.91733 5.98207C4.9172 6.39502 5.1502 6.77271 5.51944 6.95807C5.88867 7.14344 6.33096 7.10475 6.66236 6.8581C6.99376 6.61145 7.15757 6.19905 7.08567 5.7924L11.5083 5.01325C11.6662 4.98607 11.8054 4.89345 11.8913 4.75822C11.9773 4.623 12.0021 4.45777 11.9596 4.3033C11.3752 2.23712 9.75793 0.623231 7.68962 0.042297C7.53599 -0.000238094 7.37154 0.023704 7.23643 0.108277C7.10133 0.19285 7.008 0.330269 6.97924 0.486979L6.19961 4.90688C5.88129 4.84892 5.55366 4.93564 5.30578 5.14348C5.05791 5.35133 4.91552 5.6587 4.91733 5.98207Z" fill="currentColor"/>
<path d="M5.55066 3.21145C5.51763 3.40928 5.38036 3.5739 5.19162 3.64203C4.09855 4.02376 3.41498 5.11031 3.54446 6.26023C3.67394 7.41015 4.58204 8.31769 5.73266 8.44709C6.88328 8.57649 7.97048 7.89334 8.35244 6.80094C8.42062 6.61231 8.58534 6.47512 8.78329 6.44212C8.81631 6.43625 8.84977 6.43325 8.88331 6.43315C9.06747 6.43409 9.23985 6.52381 9.34621 6.67407C9.45063 6.81885 9.47746 7.00557 9.41802 7.17386C8.86269 8.76528 7.27971 9.76118 5.60375 9.57352C3.92779 9.38587 2.60458 8.06456 2.41541 6.38978C2.22624 4.715 3.22142 3.13214 4.81334 2.57582C4.87188 2.55541 4.93343 2.54502 4.99543 2.54507C5.16075 2.54598 5.31715 2.62014 5.42243 2.74754C5.53205 2.87544 5.57904 3.04545 5.55066 3.21145Z" fill="currentColor"/>
</svg>
